<svg width="304" height="58" viewBox="0 0 304 58" fill="none" xmlns="http://www.w3.org/2000/svg">
<path d="M268.527 43.5L282.396 29L268.527 14.5" stroke="#12E1B9" stroke-width="4.66667" stroke-linecap="round" stroke-linejoin="round"/>
<path d="M34.6718 43.5L20.8031 29L34.6718 14.5" stroke="#12E1B9" stroke-width="4.66667" stroke-linecap="round" stroke-linejoin="round"/>
<path d="M49.0628 15.62V18.428H54.7508V38.192H49.0628V41H63.6788V38.192H57.9908V18.428H63.6788V15.62H49.0628ZM68.5134 41H71.7894V18.788L71.2134 16.52H72.1494L84.2094 41H90.7614V15.62H87.5214V37.832L88.0614 40.1H87.1614L75.0654 15.62H68.5134V41ZM95.9353 41H99.2113V18.788L98.6353 16.52H99.5713L111.631 41H118.183V15.62H114.943V37.832L115.483 40.1H114.583L102.487 15.62H95.9353V41ZM123.357 41H126.633V29.48H128.361L139.089 41H143.409L131.385 28.076L143.301 15.62H139.197L128.433 26.744H126.633V15.62H123.357V41ZM147.158 41H164.798V38.192H150.434V29.66H162.998V26.924H150.434V18.428H164.798V15.62H147.158V41ZM169.131 41H186.771V38.192H172.407V29.66H184.971V26.924H172.407V18.428H186.771V15.62H169.131V41ZM191.103 41H194.379V32.432H198.483C205.251 32.432 209.067 30.488 209.067 24.008C209.067 17.564 205.251 15.62 198.483 15.62H191.103V41ZM194.379 29.624V18.428H198.591C202.803 18.428 205.827 19.292 205.827 24.008C205.827 28.76 202.803 29.624 198.591 29.624H194.379ZM213.428 41H231.068V38.192H216.704V29.66H229.268V26.924H216.704V18.428H231.068V15.62H213.428V41ZM235.4 41H238.676V30.956H251.492V41H254.732V31.784C254.732 30.308 254.156 29.3 252.392 29.3H249.62V28.4C252.644 27.86 254.696 26.384 254.696 22.424C254.696 16.952 250.736 15.62 244.796 15.62H235.4V41ZM238.676 28.148V18.428H244.796C248.9 18.428 251.456 18.788 251.456 23.144C251.456 27.428 248.936 28.148 244.796 28.148H238.676Z" fill="white"/>
</svg>
